<svg width="107" height="107" viewBox="0 0 107 107" fill="none" xmlns="http://www.w3.org/2000/svg">
<path d="M80.416 52.0307C80.6934 51.888 80.976 51.6573 81.2347 51.3613C81.1374 51.8187 80.976 52.2613 80.7414 52.6907C80.6627 52.4853 80.5494 52.2653 80.416 52.0307ZM75.988 49.4147C76.1013 50.1827 76.2454 50.9613 76.4107 51.696C76.4614 51.7213 76.48 51.7893 76.5 51.86C76.688 52.9053 76.98 53.8467 77.304 54.5134C77.3294 54.5107 77.3454 54.5067 77.3814 54.5054L77.4614 54.6893C77.4454 54.6853 77.4147 54.676 77.3787 54.6654C77.68 55.2387 78.008 55.5667 78.3454 55.5213C78.3774 55.5573 78.4134 55.5933 78.448 55.6293C78.1267 56.0267 78.3734 55.828 78.5627 55.748C78.6054 55.7894 78.652 55.8253 78.6987 55.864C78.6867 55.9147 78.6707 55.9693 78.628 56.06C78.66 55.992 78.692 55.9427 78.7227 55.8853C78.9507 56.0813 79.1894 56.2467 79.4387 56.3734C79.4214 56.492 79.404 56.5907 79.3867 56.716C79.3867 56.716 79.4573 56.5947 79.552 56.4253C79.8987 56.5853 80.2707 56.6853 80.6587 56.6933C83.4 56.7467 84.4 54.8987 84.4654 52.4667C86.048 50.62 84.9907 45.8267 82.2974 43.94C82.0947 43.5187 81.8867 43.1387 81.6867 42.7973C81.8093 42.7733 81.656 42.5373 81.3387 42.2547C81.1534 41.984 80.976 41.7533 80.8094 41.5853C79.9414 40.7027 79.0347 40.8187 78.2147 41.4014C78.2627 41.2947 78.2907 41.2213 78.2907 41.2213C78.1667 41.3387 78.0613 41.4653 77.9533 41.592C77.0973 42.3133 76.348 43.512 75.8533 44.5827C75.5 45.348 75.2867 46.0027 75.2334 46.4014C75.128 47.1987 75.4813 48.336 75.988 49.4147Z" fill="#FFA500"/>
<path d="M96.4293 30.9C96.48 30.8387 96.516 30.7934 96.5573 30.736C96.5813 30.7894 96.6066 30.8427 96.6293 30.896C96.5626 30.8987 96.4986 30.892 96.4293 30.9ZM62.508 5.14136C62.5453 5.15336 62.5973 5.17066 62.6213 5.17866C62.5946 5.17199 62.5546 5.15869 62.508 5.14136ZM28.4293 6.51336C28.8253 6.49603 29.2213 6.48001 29.6147 6.46134C29.38 6.57468 29.1493 6.69336 28.9173 6.80802C28.7506 6.71869 28.5853 6.62003 28.4293 6.51336ZM95.1386 20.724C90.576 14.5827 84.528 10.1693 77.4813 7.24266C75.5587 6.44266 58.3426 0.478697 57.656 2.7827C57.612 2.9307 58.5453 3.34804 59.9666 3.89071C59.876 3.88804 59.8187 3.89336 59.8107 3.91603C59.78 4.02136 59.9333 4.148 60.1773 4.28133C59.3613 4.00533 58.5826 3.79469 58.2653 3.87736C58.6226 3.77869 68.3307 10.0667 69.2133 8.22938C72.212 8.91871 73.0066 11.1694 77.2893 10.9054C77.892 10.8854 76.748 10.2454 75.948 9.84403C77.8413 10.7707 79.6733 11.8 81.4333 12.9333C80.268 14 82.752 14.6933 84.7533 15.2533C85.3213 15.6973 85.8693 16.164 86.4173 16.636C86.12 16.8094 85.784 16.9453 85.784 16.9453C86.3146 17.7733 88.0947 18.8053 89.6773 19.852C89.9947 20.2053 90.324 20.5467 90.624 20.9134C91.2186 21.6387 91.7853 22.4 92.332 23.1827C92.0893 24.444 93.66 25.9054 94.4946 26.6387C94.6026 26.8307 94.7213 27.0147 94.8253 27.208C95.268 28.9 96.952 35.82 98.964 37.1507C99.2973 38.24 99.5987 39.3427 99.8747 40.452C99.764 41.112 99.712 41.8374 99.9546 42.74C100.123 42.664 100.252 42.6094 100.364 42.5747C100.457 43.0267 100.537 43.4787 100.624 43.932C100.369 44.9667 101.269 46.6267 101.127 47.768C101.159 47.7387 101.191 47.7094 101.221 47.6774C101.241 47.8307 101.269 47.9854 101.288 48.1387C101.241 48.1374 101.204 48.1227 101.159 48.1227C101.317 49.6 101.457 50.6387 101.583 51.3587C101.604 51.708 101.623 52.0534 101.639 52.3987C101.601 52.3907 101.568 52.388 101.528 52.376C100.72 54.9187 100.797 56.0507 101.725 55.8213C101.723 56.036 101.723 56.2494 101.717 56.464C101.669 56.4387 101.635 56.4133 101.584 56.3867C101.527 57.6267 101.507 58.7214 101.552 59.732C101.512 60.2454 101.477 60.7627 101.42 61.2654C101.229 62.9974 100.936 64.6947 100.552 66.3547C99.76 66.6827 99.2493 67.2813 99.8747 68.6853C99.908 68.644 99.944 68.6147 99.9827 68.5787C99.5773 69.992 99.096 71.372 98.564 72.724C97.748 73.8147 97.0973 75.1334 96.3626 76.6C96.488 76.6667 96.5987 76.7267 96.716 76.7907C95.528 79.0987 94.152 81.292 92.608 83.356C92.5533 83.252 92.492 83.1454 92.412 83.0307C91.5333 84.1987 90.7293 85.496 89.8533 86.7054C88.22 88.516 86.4546 90.2 84.5706 91.748C82.8813 93.052 81.2026 94.2867 79.4666 95.4334C75.3653 98.0067 70.8853 99.9867 66.188 101.263C66.1813 101.235 66.1813 101.207 66.1733 101.177C65.0786 101.389 62.8146 101.84 62.384 102.035C62.4026 102.065 62.424 102.084 62.4453 102.112C61.3453 102.319 60.2413 102.497 59.132 102.627C58.4346 102.468 57.8213 102.357 57.58 102.369C57.8907 102.449 58.0813 102.567 58.184 102.711C56.156 102.904 54.112 102.972 52.0533 102.895C52.076 102.836 52.08 102.779 52.104 102.72C51.0906 102.651 50.1013 102.453 49.1386 102.132C49.256 102.251 49.3466 102.467 49.408 102.721C47.712 102.559 46.016 102.303 44.3213 101.943C43.9546 101.865 43.5973 101.772 43.2333 101.685C42.064 101.181 40.156 100.637 38.7906 100.404C37.7 100.031 36.6266 99.6214 35.5706 99.172C35.1266 98.256 34.4213 97.6427 33.5133 98.2387C20.5627 92.012 10.6706 80.224 6.48797 66.492C6.09463 63.212 5.61732 59.948 4.71066 58.2387C4.47732 56.4094 4.33065 54.564 4.30398 52.704C4.11598 39.716 9.3133 26.4787 18.452 17.1907C18.92 16.776 19.392 16.3667 19.896 15.9854C19.8426 15.9747 19.804 15.9507 19.752 15.9387C19.9613 15.7427 20.16 15.5387 20.3706 15.348C20.4866 15.2427 20.6213 15.1387 20.74 15.0347C21.46 14.8467 22.2133 14.184 23.6306 13.112C25.3333 11.8253 27.1066 11.5907 26.768 10.652C27.004 10.5054 27.236 10.356 27.4747 10.2107C27.5067 10.2734 27.5333 10.3334 27.5666 10.3987C29.18 9.45338 30.6413 8.81602 31.56 7.93335C32.0906 7.66002 32.6333 7.39735 33.176 7.13335C33.1653 7.18802 33.1706 7.22934 33.1506 7.28934C33.6266 7.08534 34.1027 6.88269 34.58 6.68003C34.5333 6.63069 34.4893 6.58268 34.444 6.53602C34.616 6.45468 34.7906 6.37735 34.9626 6.30002C34.9653 6.37202 34.9773 6.43736 34.972 6.51336C40.6426 3.87736 46.6213 4.90804 52.2173 2.88804C53.0946 2.54537 52.068 2.0947 50.5546 1.68804C51.3186 1.6227 52.06 1.58398 52.7506 1.60132C51.8986 1.57865 51.0507 1.58001 50.2093 1.59735C48.1853 1.08135 45.5306 0.656002 45.1973 0.653335C43.4266 0.641335 42.1906 0.912038 41.1746 1.32404C41.776 1.34537 42.3773 1.3667 42.9773 1.38804C42.0147 2.09204 41.348 2.20536 40.98 1.74136C40.9187 1.66402 40.8693 1.57603 40.828 1.47736C39.6053 2.03736 38.6826 2.80002 37.472 3.50535C36.1253 3.88535 34.8026 4.31999 33.5053 4.80932C33.3813 4.57599 32.6533 4.56402 32.9866 3.83869C31.7613 4.32269 25.4933 7.364 25.752 7.556C26.588 7.26 27.412 6.91735 28.212 6.53068C25.8813 7.63868 17.908 11.064 17.3133 13.5733C17.5987 13.7707 17.852 13.9427 18.088 14.1013C17.9546 14.2213 17.8173 14.344 17.684 14.4654C17.5333 14.232 17.3947 13.9827 17.2813 13.6987C15.5733 17.188 13.396 17.544 11.316 21.4014C10.0347 23.0854 8.85997 24.8547 7.78797 26.7027C6.98263 27.7334 6.21998 28.788 5.70398 29.9627C4.93332 31.716 1.55597 39.9533 1.5893 43.3893C1.46397 44.0467 1.34532 44.7054 1.24265 45.3734C-1.52135 63.4694 5.07066 80.6013 17.4773 92.0213C18.1933 92.9387 18.876 93.9187 19.544 95.0947C20.1573 96.1974 22.1506 96.2854 23.36 96.7027C29.184 100.688 35.908 103.583 43.3053 105.024C73.7413 110.956 102.059 91.1694 105.672 59.86C107.263 46.0947 103.399 31.8413 95.1386 20.724Z" fill="#FFA500"/>
<path d="M30.6986 46.8493C30.9773 46.6707 30.3973 45.7067 30.6986 46.8493ZM30.192 45.82C30.0133 45.8573 30.2693 45.5146 30.3173 45.4853C30.676 45.6293 30.6346 45.752 30.192 45.82ZM29.9173 52.576C29.9026 52.5907 29.8546 52.5906 29.8 52.5853C30.0213 51.6066 30.12 50.5373 30.1067 49.48C30.412 50.776 30.5826 51.9387 29.9173 52.576ZM24.8173 53.424C24.82 53.3147 24.82 53.1986 24.82 53.0853C25.2573 53.436 25.736 53.724 26.1827 53.9227C25.4827 54.1547 25.0533 53.932 24.8173 53.424ZM22.9453 48.0147C22.832 48.1333 22.684 48.1333 22.5 48C22.648 47.8987 22.7973 47.908 22.9453 48.0147ZM22.816 47.4333C23.012 47.5227 22.98 47.56 22.6946 47.5506L22.816 47.4333ZM23.1853 47.4973C23.0813 47.6227 22.9947 47.6107 22.94 47.448C23.0013 47.3773 23.0826 47.396 23.1853 47.4973ZM23.3333 46.4867C23.4026 46.6227 23.516 46.536 23.6493 46.3267C23.532 46.636 23.4173 46.9693 23.3053 47.3186C23.2413 47.2813 23.2266 47.0653 23.3333 46.4867ZM23.8613 44.9C23.776 45.1 23.532 44.6213 23.8613 44.9ZM23.888 44.5413C23.7933 44.548 23.7333 44.5027 23.7107 44.3987C23.8667 44.3827 23.9266 44.4333 23.888 44.5413ZM24.7693 43.792C24.7933 43.7413 24.8146 43.6973 24.8333 43.6627C24.8173 43.6947 24.8053 43.7267 24.7893 43.7573C25.1026 43.1867 25.464 42.5787 25.464 42.5787C25.5973 42.5613 26.4573 42.888 27.296 43.2947C27.0186 43.3213 26.7227 43.4453 26.412 43.6587C25.7413 43.44 25.0627 43.6693 24.4813 44.5667C24.4467 44.6227 24.4093 44.6866 24.372 44.7506C24.5133 44.3986 24.6413 44.076 24.7413 43.8547C24.6027 44.1387 24.4653 44.424 24.3293 44.7107C24.3346 44.6093 24.536 44.2147 24.7693 43.792ZM24.776 42.536C25.2693 41.908 24.1533 43.6013 24.776 42.536ZM26.18 42.36C26.092 42.3653 26.04 42.2707 26.0226 42.08C26.08 42.08 26.3013 42.38 26.18 42.36ZM27.8613 43.172C28.132 42.6187 27.8666 43.1213 27.8613 43.172ZM28.6827 43.7813L28.5427 43.6467C28.732 43.5227 28.7867 43.5747 28.6827 43.7813ZM29.876 46.5387C29.884 45.9547 29.5787 45.736 29.876 46.5387ZM27.4213 52.732C27.3533 52.524 27.2893 52.3147 27.232 52.104C27.3826 51.9133 27.5293 51.6853 27.6707 51.4307C27.644 51.9133 27.568 52.3547 27.4213 52.732ZM22.704 48.3427L22.8827 48.46C23.0187 48.628 22.644 48.4733 22.704 48.3427ZM22.596 48.9186C22.728 48.9733 22.5266 49.0573 22.596 48.9186ZM30.276 45.3467C30.3267 45.3333 30.332 45.3427 30.1387 45.416C29.2667 45.2133 30.6413 45.124 30.276 45.3467ZM31.248 47.9093C31.1733 48.4693 31.012 49.0053 30.7707 49.516C30.3813 49.4307 32.008 45.5067 29.7107 44.8267C29.6067 45.076 29.552 45.3467 29.5213 45.6293C29.3746 45.1867 29.2 44.792 29.0027 44.456C29.7387 45.5387 29.0213 43.9987 28.9107 43.892C29.2347 43.88 29.4627 43.9187 29.6147 43.9973C29.596 43.96 29.5773 43.9147 29.5493 43.8573C29.1693 43.368 28.628 42.7707 28.512 42.7027C29.976 42.6387 26.4147 41.5773 24.78 41.9867C24.0147 42.9587 22.2306 45.5787 21.9573 44.8C21.844 45.268 21.8333 46.1467 21.8973 47.2C21.8573 47.0813 21.7373 46.9387 21.6506 47.0107C21.5826 47.0693 21.7786 47.4547 21.8973 47.328C21.984 48.5387 22.168 50.0173 22.4333 51.4053C22.0853 54.88 22.964 57.9586 27.2107 56.384C27.7747 56.176 28.2467 55.7853 28.636 55.2787C29.748 54.948 30.9506 54.3067 30.3653 53.8827C30.0453 53.864 29.8147 53.9973 29.676 54.2787C29.916 53.84 30.436 52.3227 30.8373 50.88C30.796 50.5347 30.8933 50.3773 30.964 50.42C31.3226 49.064 31.536 47.8853 31.248 47.9093Z" fill="#FFA500"/>
<path d="M41.3293 73.944C41.3133 73.8547 41.308 73.792 41.308 73.7387C41.3786 73.7893 41.4453 73.848 41.5186 73.8947L41.3293 73.944ZM41.3053 74.8973C41.2 75 41.3586 74.5587 41.4746 74.6613L41.3053 74.8973ZM39.4413 75.0293C39.5613 75.072 40.532 75.2947 40.9853 75.3093C40.4986 75.4373 39.376 75.6733 39.4413 75.0293ZM40.1226 74.0373C40.0333 74.1093 39.972 74.4733 39.9413 74.0453L40.1226 74.0373ZM40.472 73.012C40.4626 73.036 40.4533 73.0547 40.4426 73.08C39.9493 73.84 39.9053 73.756 40.3053 72.8467C40.3573 72.904 40.4173 72.956 40.472 73.012ZM40.528 74.1413C40.532 74.2267 40.34 75.0133 40.528 74.1413ZM72.532 73.9667L72.2386 73.456C72.34 73.2026 72.4826 73.1933 72.532 73.9667ZM38.62 71.9813L38.42 71.9333C38.5 71.836 38.968 71.1813 38.62 71.9813ZM37.2333 73.6573C37.016 73.8933 36.9533 73.7653 37.0626 73.276C37.0786 73.3053 37.72 73.3746 37.2333 73.6573ZM53.2853 71.0387C53.0426 71.164 52.788 71.2533 52.5266 71.3307C52.3906 71.34 52.2506 71.352 52.1106 71.3627C51.004 71.336 49.4653 71.06 49.048 70.8853C48.992 71.6066 48.632 71.6413 48.9626 70.844C47.804 71.3227 47.38 71.456 46.8613 71.5573C46.892 71.448 46.9053 71.336 46.856 71.256C46.7986 71.1693 46.6213 71.3987 46.58 71.6107C46.3787 71.644 46.1373 71.688 45.8413 71.7467C44.2013 71.8107 42.724 71.828 41.584 71.7733C40.9853 71.3827 40.0813 71.436 39.4733 71.416C39.4026 71.372 39.3493 71.324 39.3253 71.2707C39.348 71.3227 39.3746 71.3627 39.3973 71.4133C39.1653 71.4013 38.9826 71.3773 38.896 71.2987C38.5306 70.984 36.964 72.2 36.792 72.984C36.8533 72.592 36.8387 72.204 36.748 71.8186C36.5013 72.852 36.3906 72.9426 36.4186 72.092C36.4186 73.5186 36.1493 73.5867 35.9706 74.18C35.9986 74.076 36.9813 75.6253 36.7546 75.44C36.7413 75.4307 44.7626 75.596 47.1733 75.516C47.3266 75.5307 47.4813 75.544 47.636 75.5546C44.248 76.1346 41.76 76.6627 41.98 76.6693C44.1573 76.736 63.404 77.096 64.448 75.2387C64.6107 75.148 64.8266 74.8547 64.876 74.6973C66.324 74.528 67.6653 74.3493 68.7573 74.1613C68.9213 74.532 69.2306 74.9813 69.104 74.1013C69.1546 74.0907 69.204 74.0813 69.252 74.072C69.4773 74.504 69.7973 75.3173 69.5933 75.404C69.9253 75.2613 69.7826 73.9573 69.904 73.9453C70.0306 73.932 70.2506 73.916 70.5 73.904C70.7013 73.8947 70.8706 73.888 71.0346 73.8853C71.0533 73.8093 71.0826 73.7307 71.1333 73.6413C71.1773 73.72 71.1893 73.8013 71.2013 73.8827C71.5853 73.88 71.9013 73.896 71.9173 73.952C71.8026 75.5813 74.9506 72.7107 75.0066 72.64C74.0253 72.9413 73.4386 73.08 73.0986 73.1387C73.2506 73.2053 73.36 73.3747 73.2333 73.76C73.2613 73.6773 72.0226 73.0933 71.956 72.9387C72.192 72.2533 73.1933 73.0093 73.624 72.8333C74.812 72.3533 71.5333 71.4053 70.5906 71.6467C70.468 71.5027 70.3413 71.36 70.2013 71.236C70.2293 71.18 70.272 71.136 70.2986 71.076C70.2253 71.0973 70.1653 71.1293 70.1066 71.1613C67.6386 69.1147 62.9946 70.136 60.1613 70.5693C59.7026 70.64 58.6093 70.7653 57.1586 70.912C56.7173 70.8907 56.4133 70.8987 56.1467 71.0107C55.192 71.1027 54.1253 71.1986 53.0053 71.2906C53.1893 71.24 53.3026 71.1613 53.2853 71.0387Z" fill="#FFA500"/>
</svg>
