<svg width="104" height="107" viewBox="0 0 104 107" fill="none" xmlns="http://www.w3.org/2000/svg">
<path d="M77.9519 43.784C78.0186 43.7707 78.0613 43.7787 78.092 43.7933C78.0666 43.8267 78.0413 43.86 78.016 43.8933C77.9853 43.8707 77.9639 43.836 77.9519 43.784ZM78.6773 41.664C78.8253 41.0333 78.5333 42.8467 78.6773 41.664ZM80.46 41.672C79.9586 41.9053 79.4426 42.3147 78.9426 42.82C79.1573 42.1253 79.3733 41.4134 79.332 41.4414C79.5653 41.2747 79.9893 41.4027 80.46 41.672ZM79.964 40.9627C79.8733 40.9907 79.8 40.9147 79.7306 40.7347C79.8 40.7147 80.1013 40.9453 79.964 40.9627ZM83.8386 44.7573C84.196 44.9107 84.1586 45.036 83.7173 45.1067C83.6866 45.0694 83.6786 45.0453 83.6706 45.0213C83.7013 44.924 83.8053 44.776 83.8386 44.7573ZM81.1706 52.8933C81.092 52.7453 81.052 52.5627 81.008 52.388C81.1573 52.6267 81.3226 52.8267 81.5026 52.9734C81.4106 53.128 81.3026 53.1347 81.1706 52.8933ZM77.9093 54.572L78.004 54.76C77.9306 54.7427 77.4506 54.6267 77.9093 54.572ZM76.9093 52.912C76.9346 52.9574 77.0066 53.0387 77.1 53.136C77.632 55.024 78.356 56.232 79.2426 55.4613C78.2373 56.7267 79.6706 55.2067 79.2293 56.1734C79.356 55.8947 79.4453 55.6827 79.5173 55.4973C80.3053 56.04 81.1626 56.1147 81.9653 55.8693C81.976 56.232 81.9946 56.628 82.0306 57.096C82.0413 57.0613 82.2733 56.2667 82.4 55.7027C82.5346 55.6387 82.6666 55.5693 82.7973 55.4907C82.728 55.776 82.6866 56.068 82.6813 56.3693C82.884 56.5187 83.388 55.5653 83.74 54.7027C84.4066 53.9693 84.8613 53.012 84.916 52.024C84.952 51.3187 84.92 50.6027 84.8413 49.8907C84.8466 49.928 84.8666 49.964 84.92 49.9734C85.5533 50.0894 85.1573 49.388 84.9933 49.572C84.9933 49.572 84.8413 49.7693 84.8413 49.8907C84.8013 49.5213 84.7453 49.1467 84.68 48.78C84.86 47.9267 84.9413 47.3147 84.7746 47.3227C84.7293 47.62 84.66 47.9107 84.568 48.196C84.5106 47.9387 84.4573 47.6827 84.3946 47.4253C84.4413 46.4693 84.3773 45.3054 83.8626 44.58C83.8506 44.6027 83.8306 44.6174 83.6626 44.6814C83.612 44.6667 83.568 44.652 83.5293 44.6387C83.5146 44.5854 83.4933 44.532 83.472 44.4787C83.5653 44.4587 83.7013 44.4574 83.792 44.476C83.6653 44.324 83.5146 44.2 83.3373 44.104C83.1986 43.7373 83.0599 43.3747 82.9173 43.0187C83.0346 43.0493 83.1253 43.0907 83.1986 43.136C83.1573 43.0373 83.112 42.896 83.1 42.8427C82.7386 42.2454 82.276 41.5827 82.3413 41.668C83.3746 41.9173 79.908 39.396 78.3213 41.2027C78.4266 41.0467 78.5213 40.8813 78.6373 40.7333C78.592 40.6733 78.4613 40.8907 78.2893 41.2347C78.1746 41.372 78.0693 41.528 77.976 41.716C78.0586 41.572 78.164 41.4427 78.2533 41.3053C77.6413 42.5373 76.512 45.2307 76.216 44.1213C76.0893 44.64 76.0746 45.752 76.156 47.0867C76.116 47.208 76.084 47.3187 76.064 47.4147C75.6933 49.272 75.9453 51.2654 76.9093 52.912Z" fill="#FF0000"/>
<path d="M27.6946 53.0747C27.7253 53.024 27.7506 52.9667 27.776 52.9134C27.8066 52.928 27.8373 52.924 27.868 52.9307C27.7706 53 27.6986 53.1067 27.6546 53.2494C27.6626 53.204 27.68 53.1414 27.6946 53.0747ZM21.832 51.916C21.8693 51.9054 21.8906 51.9013 21.9173 51.8933C21.9186 51.9267 21.9213 51.9613 21.924 51.9973C21.8666 51.988 21.832 51.964 21.832 51.916ZM21.6466 51.3134C22.348 51.5374 21.1626 51.7854 21.6466 51.3134ZM21.7986 48.2253C21.9173 48.3027 21.7066 48.3587 21.7986 48.2253ZM22.276 47.368C22.1466 47.4694 22.004 47.448 21.84 47.288C22.0013 47.2093 22.144 47.2374 22.276 47.368ZM22.2346 46.764C22.4253 46.8813 22.38 46.9134 22.104 46.868L22.2346 46.764ZM25.22 41.268C24.9706 41.432 24.708 41.6854 24.436 42.0374C24.548 41.6427 24.6213 41.356 24.588 41.384C24.7373 41.2547 24.96 41.224 25.22 41.268ZM25.1093 40.8054C25.0346 40.86 24.9506 40.8027 24.8533 40.6387C24.912 40.6027 25.232 40.7494 25.1093 40.8054ZM26.7946 41.408C26.772 41.3867 26.7466 41.364 26.7226 41.3454C26.804 41.264 26.9133 41.2454 26.7946 41.408ZM21.9986 47.6613L22.1573 47.808C22.2546 47.9974 21.9266 47.7853 21.9986 47.6613ZM22.0546 49.4827C22.0213 49.4734 21.9906 49.46 21.944 49.4134C21.988 49.3734 22.028 49.364 22.0706 49.3694C22.0653 49.408 22.06 49.4454 22.0546 49.4827ZM23.964 49.9187C23.8973 49.388 23.976 48.8627 24.1333 48.3547C24.04 48.988 23.9866 49.5453 23.964 49.9187ZM22.0013 49.9814C21.996 50.0267 21.9906 50.0707 21.988 50.1147C21.844 50.1427 21.7586 50.1094 22.0013 49.9814ZM28.4827 46.004C28.4773 45.972 28.472 45.9374 28.468 45.904C28.584 45.88 28.5453 46.0107 28.4827 46.004ZM28.7293 44.3707C29.0773 44.5307 29.0293 44.644 28.588 44.7094C28.412 44.7347 28.6813 44.3987 28.7293 44.3707ZM29.0666 45.78C29.364 45.5947 28.8053 44.5974 29.0666 45.78ZM29.556 46.904C29.4426 47.4747 29.232 48.0094 28.9293 48.508C28.8346 48.4774 29.7346 45.5547 28.76 44.1747C28.756 44.1907 28.7373 44.208 28.6973 44.228C28.7506 44.2187 28.752 44.228 28.5613 44.292C27.8813 44.1107 28.5586 44.052 28.732 44.128C28.5853 43.9347 28.4013 43.772 28.1653 43.6573C28.112 43.7493 28.0773 43.8494 28.0373 43.9494C27.892 43.4427 27.7293 42.9707 27.548 42.5654C27.84 42.612 28.0453 42.6853 28.1827 42.784C28.1333 42.6373 28.08 42.3413 28.1226 42.4933C28.1333 42.5267 28.1626 42.5587 28.1933 42.5933C27.8786 41.9893 27.4173 41.2547 27.4506 41.2947C28.4373 41.548 25.148 39.0693 23.6066 41.1213C23.6786 41 23.7506 40.872 23.8253 40.7494C23.784 40.7054 23.6813 40.9 23.5386 41.2107C23.444 41.352 23.3546 41.5053 23.2773 41.6853C23.3413 41.568 23.412 41.4547 23.48 41.3387C22.9386 42.5467 21.9413 45.1094 21.5706 44.1C21.5173 44.3574 21.3786 45.2413 21.2706 46.284C21.228 46.228 21.1706 46.1867 21.12 46.2187C21.064 46.256 21.1466 46.492 21.2466 46.548C21.0706 48.3867 21.0093 50.5973 21.644 50.8573C20.692 51.232 21.2466 52.428 22.1386 53.5387C22.408 54.516 22.936 55.1667 23.8426 55.2293C24.396 55.6587 24.816 55.8547 24.816 55.58C24.8133 55.3974 24.8053 55.248 24.7906 55.1094C25.0226 55.0454 25.2666 54.9493 25.532 54.828C25.468 55.112 25.4013 55.4214 25.3346 55.7694C21.6573 60.0214 25.7026 55.6027 26.404 54.3547C26.4346 54.3347 26.4666 54.316 26.4986 54.296C26.5853 54.2413 26.6453 54.2093 26.712 54.1653C26.7666 54.1307 26.8066 54.088 26.86 54.052C26.5746 54.44 26.336 54.8573 26.18 55.3187C26.4453 55.7173 28.516 52.9907 28.26 52.8227C28.2306 52.8227 28.2133 52.8414 28.1853 52.844C28.3106 52.732 28.4146 52.532 28.4986 52.2707C28.5066 52.516 28.536 52.76 28.6133 52.9973C28.7666 52.512 28.6213 52.328 28.5386 52.1307C28.608 51.88 28.6626 51.576 28.7026 51.2347C28.752 51.2787 28.78 50.8573 28.752 50.7267C28.764 50.5133 28.7746 50.292 28.78 50.06C28.8013 50.0067 28.8213 49.9533 28.8426 49.8987C28.8346 49.56 28.9373 49.4147 29.0066 49.4454C29.4946 48.0907 29.86 46.9027 29.556 46.904Z" fill="#FF0000"/>
<path d="M66.9826 76.0014C66.9746 75.9707 67.0213 75.8827 67.0906 75.772C67.1599 75.896 67.2293 76.016 67.3 76.1267C67.2213 76.6774 67.1186 76.8334 66.9826 76.0014ZM61.4559 68.052C61.4866 68.0573 61.4813 67.9587 61.4653 68.016C61.564 67.6174 61.7653 68.1187 61.4559 68.052ZM61.0026 66.7907C61.1426 66.8587 61.2826 66.932 61.4199 67.0067C61.2639 66.9694 61.1106 66.8974 61.0026 66.7907ZM60.7426 67.8694C60.7586 67.8707 60.7946 67.8867 60.8573 67.9454C59.7413 67.6907 60.372 67.664 60.7426 67.8694ZM60.2453 66.476C60.352 66.5147 60.4613 66.5453 60.5666 66.588C60.536 66.6867 60.4946 66.8 60.432 66.948C60.316 67.2267 60.2053 66.5867 60.2453 66.476ZM59.936 66.3694C59.9773 66.3827 60.0239 66.3987 60.0626 66.412C60.0306 66.4974 59.9573 66.732 60.0066 66.6774C60.0413 66.5574 60.0519 66.476 60.0626 66.412C60.0626 66.4534 60.0493 66.5267 60.0066 66.6774C59.472 67.2814 59.744 66.6307 59.936 66.3694ZM57.0333 66.6747C57.144 66.316 57.2293 66.3227 57.272 66.6934L57.0333 66.6747ZM55.9959 66.62C55.9906 66.6053 55.9706 65.488 55.9959 66.62ZM53.6933 66.1427C53.6306 66.1587 53.584 66.088 53.536 65.9734C53.584 65.9667 53.62 65.952 53.6653 65.9427C53.7253 66.0454 53.7599 66.144 53.6933 66.1427ZM49.8786 67.7267C49.788 67.636 49.7706 67.532 49.7959 67.42C49.9666 67.5493 49.9893 67.6614 49.8786 67.7267ZM49.5599 68.076C49.4519 67.376 49.3106 68.1867 49.5599 68.076ZM40.508 76.6734C40.5373 76.7614 40.572 76.8413 40.6053 76.92C40.556 76.916 40.5159 76.9147 40.4559 76.9067C40.4559 76.9067 40.4733 76.776 40.508 76.6734ZM67.7626 76.6974C67.7946 76.7614 67.8546 76.8147 67.9306 76.8587C69.0599 77.82 70.1946 77.012 69.6466 73.6094C68.4013 65.8467 61.0266 61.6334 53.5306 62.7787C49.7373 63.3587 46.0133 65.1787 43.3146 67.9227C41.7306 69.5307 40.5 71.512 40.004 73.7307C39.7 74.208 39.4546 74.656 39.2853 75.0627C39.3279 75.0747 39.4053 75.116 39.5413 75.216L39.4573 75.4654C39.4213 75.4227 39.2999 75.26 39.2506 75.1507C38.7973 76.3 38.9679 77.1094 40.2199 77.2267C39.8573 77.228 39.5239 77.3254 39.2226 77.516C40.1119 77.552 40.1933 77.6507 39.4653 77.812C40.9626 77.3854 41.5479 77.9427 42.2599 77.0934C42.2239 77.1387 42.3906 76.1867 42.7493 75.0267C43.6413 73.4 44.7159 71.8654 45.9613 70.5267C46.7639 70.2667 47.7546 70.048 47.7826 69.704C47.7853 69.5547 47.1773 69.636 46.9293 69.5574C47.1559 69.3467 47.3839 69.1387 47.6239 68.9427C47.7199 69.34 48.9666 69.0147 50.0266 68.6414C47.2586 71.66 54.064 66.4667 52.8466 66.488C54.584 66.46 55.6426 67.972 58.0133 67.16C59.9706 67.312 57.5346 66.512 57.5733 66.6014C58.084 65.9587 58.6826 66.2067 58.9786 66.092C59.128 66.128 59.2706 66.148 59.4186 66.188C59.1959 66.84 59.3213 67.7707 59.7826 68.228C60.6906 69.128 62.0906 68.2947 62.3786 68.728C62.536 68.9067 64.5279 70.6667 65.5973 71.4947C65.6706 71.652 65.74 71.812 65.8053 71.9734C65.8266 72.0974 65.8866 72.24 65.9639 72.3694C65.9959 72.4614 66.0146 72.5627 66.0426 72.6574C65.7 72.8614 65.204 73.088 65.2453 73.128C65.356 73.2387 65.8173 73.104 66.14 73.0107C66.1986 73.2107 66.2653 73.404 66.3093 73.6094C66.4106 74.0854 66.5413 74.512 66.6893 74.904C66.3026 75.3534 67.3999 77.692 67.5519 77.9947C67.5519 77.4254 67.5519 76.9267 67.5519 76.4587C67.6213 76.5454 67.6906 76.624 67.7626 76.6974Z" fill="#FF0000"/>
<path d="M62.548 69.7454C62.2307 70.2054 63.176 69.8414 63.1933 69.7134C63.1933 69.652 62.792 69.3694 62.548 69.7454Z" fill="#FF0000"/>
<path d="M60.3267 69.3093C60.0307 69.9893 61.2907 69.124 61.2694 69.1413C61.1934 69.1333 60.5067 68.896 60.3267 69.3093Z" fill="#FF0000"/>
<path d="M56.352 67.9867C56.2653 69.3213 57.5173 67.624 57.5 67.656C57.3613 67.664 56.3653 67.5067 56.352 67.9867Z" fill="#FF0000"/>
<path d="M21.6627 96.2707C21.536 96.0987 21.468 95.9173 21.4173 95.7227C21.5147 95.9627 21.5813 96.1307 21.6627 96.2707ZM77.9933 95.9093C78.044 95.916 78.08 95.92 78.1267 95.9267C78.1 95.9427 78.0747 95.9587 78.0494 95.9733C78.028 95.952 78.016 95.932 77.9933 95.9093ZM90.2507 85.4747C90.1667 85.5747 90.0907 85.6747 90.0067 85.7733C89.9787 85.7747 89.9587 85.7747 89.9294 85.7773C90.0334 85.6707 90.1413 85.5707 90.2507 85.4747ZM94.74 29.5494C94.8973 29.34 95.024 29.1773 95.1347 29.032C95.2133 29.1907 95.2934 29.3467 95.3694 29.5067C95.168 29.5 94.9613 29.508 94.74 29.5494ZM61.3054 3.39466C61.34 3.40266 61.3907 3.41199 61.4107 3.41732C61.388 3.41332 61.352 3.40666 61.3054 3.39466ZM102.055 40.0907C99.352 29.688 93.884 19.9387 86.0694 12.5187C81.8307 8.49735 76.8987 5.13869 71.44 3.01602C68.6867 1.94535 65.8067 1.20134 62.876 0.836005C60.8694 0.588005 58.8574 0.515995 56.836 0.625328C55.5227 1.28799 55.5227 1.96934 56.836 2.66934C56.992 2.68534 57.144 2.712 57.3013 2.73067C58.888 3.28667 67.492 7.74932 68.1507 6.05332C71.2427 6.41999 71.6693 8.52135 75.6933 8.68269C75.7893 8.68802 75.8307 8.66403 75.8507 8.62937C77.208 9.3827 78.516 10.196 79.7734 11.068C77.8987 12.3026 81.456 13.2587 83.5547 13.9934C83.9613 14.3427 84.3573 14.7027 84.7507 15.064C84.4173 15.34 83.7867 15.564 83.7454 15.58C84.3387 16.7973 87.288 18.2653 89.0733 19.6453C89.5453 20.2213 90.0067 20.8067 90.4533 21.404C90.4587 21.516 90.4453 21.6253 90.4013 21.732C89.8253 23.216 92.0454 24.9027 92.8827 25.5507C93.404 25.428 95.26 35.564 97.9574 35.8547C98.1667 36.476 98.3614 37.1067 98.5494 37.7413C98.3467 38.7133 97.8947 39.6827 98.2453 41.1787C99.06 40.8387 99.18 41.0787 99.4827 41.2893C99.5134 41.4147 99.5414 41.5413 99.5694 41.668C97.952 42.348 99.5533 44.6987 99.2507 46.2667C99.596 45.972 99.9413 45.676 100.287 45.38C100.371 45.908 100.443 46.4453 100.512 46.9813C100.156 46.7613 99.736 46.6333 99.2533 46.6307C99.4133 47.8907 99.528 49.1533 99.5934 50.4213C100.133 50.096 100.56 50.0813 100.88 50.352C100.896 50.5373 100.904 50.7253 100.916 50.9133C100.503 51.068 100.076 51.0907 99.6347 50.9693C98.7227 54.2347 99.1054 55.2653 100.783 54.0627C100.883 54.08 100.972 54.0653 101.063 54.0467C101.073 54.6013 101.079 55.152 101.071 55.7C100.745 55.4973 100.348 55.2893 99.852 55.0707C99.8814 56.2347 99.0507 59.5813 100.917 59.0547C100.916 59.1 100.916 59.1453 100.911 59.1893C99.852 60.4307 100.044 61.3773 100.587 62.1067C100.455 63.036 100.289 63.9533 100.104 64.864C99.0107 65.216 98.1107 65.816 99.0507 67.444C99.2147 67.2293 99.4107 67.0707 99.632 66.964C99.2907 68.3227 98.8974 69.6573 98.444 70.9613C97.4747 72.1547 96.8093 73.6573 95.9253 75.4227C96.1267 75.524 96.312 75.6173 96.492 75.7067C96.3947 75.9133 96.2987 76.12 96.196 76.324C95.5254 77.6707 94.8054 78.984 94.016 80.252C93.8587 80.352 93.7013 80.4507 93.528 80.5413C93.62 80.5707 93.7107 80.5813 93.8013 80.6C93.3947 81.248 92.9667 81.8827 92.5267 82.5067C92.4414 82.312 92.3213 82.1 92.1453 81.86C90.732 84.0667 88.896 86.9493 86.7813 88.5333C86.8307 88.6307 86.8747 88.8387 86.9214 89.0867C86.364 89.636 85.7867 90.1693 85.196 90.6933C85.3547 90.3493 85.4893 89.9627 85.556 89.52C82.3267 92.3707 78.8427 94.636 75 96.5427C75.1614 96.8587 75.3587 97.1333 75.5694 97.388C75.1534 97.6093 74.7387 97.832 74.3187 98.0427C74.344 97.852 74.36 97.6587 74.36 97.4627C74.3413 97.7347 74.256 97.944 74.1414 98.1293C73.5227 98.436 72.8973 98.7333 72.264 99.0187C70.596 99.276 68.4254 99.24 67.6134 100.845C67.1187 101.013 66.6293 101.183 66.1307 101.337C66.0613 101.035 65.988 100.733 65.896 100.436C64.9173 100.703 62.4293 101.424 62.184 101.572C62.376 101.883 62.6027 102.089 62.8587 102.231C62.5213 102.313 62.192 102.399 61.8533 102.476C60.756 102.048 58.028 102.197 57.4293 102.251C58.084 102.387 58.284 102.703 58.0747 103.177C55.9254 103.5 53.8067 103.677 51.7253 103.7C51.492 102.951 51.12 102.605 49.044 102.571C49.2427 102.756 49.3907 103.185 49.452 103.668C47.6667 103.595 45.9173 103.408 44.1973 103.127C44.0187 102.193 37.8334 100.809 37.1494 101.359C36.7387 101.219 36.328 101.077 35.9227 100.925C35.748 100.565 35.3694 100.209 34.6334 99.9013C33.2707 99.328 33.3027 99.7133 32.6774 99.552C32.2 99.3267 31.7293 99.0933 31.2613 98.852C30.2827 98.2227 27.224 96.2493 26.3827 95.96C26.2827 95.892 26.188 95.82 26.0893 95.7507C25.5493 93.9493 23.5547 93.0267 21.476 92.1053C18.4227 89.3733 15.6947 86.2374 13.3467 82.7827C13.656 82.7187 13.932 82.9227 14.076 83.64C15.308 83.0093 14.4054 82.684 13.1827 82.5307C12.7587 81.9027 12.352 81.2667 11.9573 80.62C12.2493 80.7053 12.5813 80.8654 12.956 81.1147C12.516 80.388 11.9147 79.948 11.2707 79.484C8.55469 74.776 6.50268 69.5853 5.26135 64.088C4.55735 60.98 4.13202 57.8573 3.97069 54.7507C4.41602 54.3547 4.63735 53.9093 3.92935 53.5773C3.86668 51.544 3.88135 49.5173 4.09468 47.5147C4.26801 45.8933 4.47334 44.3267 4.62134 43.3547C5.86534 35.1533 9.35867 27.316 15.1547 20.8187C16.472 19.3413 17.972 18.0347 19.5573 16.8467C19.4093 16.8093 19.284 16.7413 19.1467 16.692C19.3 16.552 19.4494 16.408 19.604 16.272C20.1334 16.3053 20.7894 15.9067 22.144 14.8854C24.372 13.2134 26.8894 12.7507 26.2747 11.364C26.5374 11.2013 26.7973 11.0306 27.064 10.8733C27.12 10.9853 27.1747 11.0973 27.232 11.208C28.8267 10.2187 30.248 9.59466 31.1267 8.72266C32.4733 8.07599 33.8387 7.46265 35.2374 6.91465C36.22 6.53065 37.212 6.17066 38.2094 5.828C42.7374 4.62666 47.3427 4.51064 51.612 2.67064C52.212 2.38797 51.9934 2.11202 51.376 1.84935C52.4094 1.44802 52.9627 1.12535 52.112 1.11335C51.0174 1.09868 49.9427 1.12534 48.8787 1.17201C46.952 0.789341 44.7813 0.530685 44.464 0.549352C42.7347 0.650685 41.5293 0.981365 40.5533 1.42936C41.1333 1.43336 41.7067 1.43868 42.2827 1.44401C41.8614 1.77601 41.496 1.98398 41.1867 2.07598C41.1173 2.09065 41.0467 2.10269 40.9787 2.11602C40.6987 2.15202 40.472 2.07334 40.3 1.87468C40.2373 1.80401 40.188 1.724 40.1427 1.63334C39.5414 1.948 39.02 2.31069 38.5014 2.69069C36.3707 3.23869 34.32 3.924 32.356 4.73067C32.3227 4.616 32.3133 4.48135 32.388 4.28269C31.1507 4.82402 24.9907 7.98402 25.2494 8.18002C25.552 8.07602 25.844 7.95865 26.14 7.84265C26.024 7.91198 25.9067 7.98269 25.788 8.05469C22.5013 9.62136 17.2507 12.3574 16.8213 14.216C17.028 14.3667 17.212 14.5133 17.384 14.6533C17.2893 14.7467 17.1947 14.8387 17.1014 14.932C16.992 14.7414 16.876 14.56 16.7867 14.3413C14.2547 18.992 7.78269 23.8067 4.90803 30.4827C4.00536 32.58 -0.265309 43.4547 1.30402 45.2827C1.22669 45.1933 1.52402 44.5813 1.83202 43.8667C1.67202 46.2187 1.61869 49.9627 1.63202 53.5213C1.63202 53.9213 1.63203 54.3213 1.63869 54.7213C1.67069 58.6507 1.77602 62.1093 1.89735 62.8373C2.04935 62.7453 2.18803 62.6427 2.30936 62.5307C3.19603 68.1973 4.9547 73.76 7.6467 78.9707C8.44403 82.5747 13.092 87.7907 14.3734 89.276C16.3707 91.5907 17.8947 93.3147 19.3573 96.1973C20.04 97.5587 22.8947 97.4147 23.8227 98.156C22.9 97.4173 22.3053 96.9694 21.9267 96.5814C22.152 96.752 22.428 96.8067 22.744 96.7507C23.1667 97.0653 23.5933 97.372 24.028 97.6707C25.1787 99.3667 29.304 101.148 30.04 101.611C31.1534 102.315 31.868 102.425 32.3933 102.284C34.5787 103.216 36.8133 103.981 39.088 104.576C39.46 104.916 39.8147 105.067 40.096 104.823C53.768 108.081 68.652 105.383 80.9827 97.5333C100.46 85.1387 107.764 62.064 102.055 40.0907Z" fill="#FF0000"/>
</svg>
