<svg width="108" height="109" viewBox="0 0 108 109" fill="none" xmlns="http://www.w3.org/2000/svg">
<path d="M71.2093 70.1733C71.1901 70.2147 71.064 70.2893 70.8984 70.3733C70.9964 70.2347 71.0995 70.0973 71.1901 69.9613C71.1771 70.1346 71.1828 70.2293 71.2093 70.1733ZM62.2339 78.9213C62.1661 78.8253 62.1578 78.784 62.1598 78.7533C62.1984 78.7413 62.236 78.7253 62.274 78.7133C62.3443 78.7453 62.3953 78.8306 62.2339 78.9213ZM61.5702 79.3173C60.7588 79.8053 60.1948 79.56 61.5702 79.3173ZM56.5625 79.8427C56.6375 79.4707 56.7307 79.464 56.8536 79.8213L56.5625 79.8427ZM55.3068 79.8906C55.2807 79.824 55.2412 78.8213 55.3068 79.8906ZM52.2625 78.376C53.3672 78.3133 54.4046 78.136 55.3161 77.828C55.2234 77.9453 55.1527 78.0573 55.1027 78.1667C54.4921 78.376 53.7812 78.7 53.4531 78.92C53.3953 78.9653 52.8599 78.6827 52.2625 78.376ZM52.6631 79.2067C52.5427 79.2107 52.4921 79.052 52.5099 78.7333C52.5656 78.7347 52.8213 79.2427 52.6631 79.2067ZM47.8245 78.912C47.7995 78.7573 47.8625 78.6506 48.0057 78.588C48.0531 78.8426 47.9953 78.952 47.8245 78.912ZM47.2604 78.9347C47.6927 78.3533 46.936 78.8333 47.2604 78.9347ZM71.2281 66.3306C71.0511 66.2906 70.836 66.3666 70.5959 66.5186C70.5833 66.2653 70.5942 66.068 70.6536 65.9653C70.4166 66.3693 70.1505 66.7426 69.886 67.1186C69.3417 67.6693 68.7328 68.4453 68.136 69.2586C65.6172 71.8933 62.4197 73.7653 59.0615 75.3506C57.488 76.0933 56.2323 76.876 55.5568 77.5546C53.8235 77.1733 47.7912 73.776 46.5427 72.8693C45.5521 72.148 40.0068 66.6 37.8281 66.2186C37.9609 66.028 38.0708 65.8253 38.1281 65.5933C37.6855 65.9506 37.4973 66.04 37.5151 65.916C37.4505 66.028 37.3932 66.144 37.3312 66.2586C37.1568 66.332 37.0208 66.4627 36.9688 66.7147C36.9473 66.82 36.938 66.9186 36.9219 67.0226C36.9084 67.0493 36.8927 67.0733 36.8807 67.0986C36.8781 66.7493 36.7079 66.6133 36.3677 66.6933C36.4489 66.64 36.2921 68.3933 36.2495 68.1266C36.2599 68.1853 36.4864 68.56 36.8473 69.1147C37.1511 71.8693 39.0224 74.0853 41.5552 75.6613C42.7817 77.1853 43.8437 78.3053 44.2193 78.1613C44.4964 78.0746 42.5469 76.0826 45.014 77.6546C43.9677 77.8106 46.1364 78.9227 47.7812 79.6813C52.136 79.588 53.3693 80.4347 57.7636 80.1147C57.7636 80.1147 57.8011 80.1133 57.8688 80.1067C60.2396 79.7667 57.1197 79.5893 57.188 79.6773C57.2516 79.5707 57.3751 79.4733 57.5229 79.38C58.0099 79.3853 58.5552 79.372 59.2063 79.3213C59.5031 79.8 59.9869 80.2026 60.5631 80.2533C62.3021 80.4026 63.1088 78.5333 63.6437 78.484C63.7188 78.4693 63.8541 78.396 64.0255 78.2853C64.114 78.26 64.2062 78.2187 64.238 78.2C64.4182 78.0173 64.6828 77.8186 64.9713 77.588C65.4604 77.3306 65.9344 77.0427 66.3948 76.7373C66.4521 76.752 66.5724 76.7027 66.7093 76.5147C67.7287 75.8053 68.664 74.9973 69.4645 74.1013C69.6755 74.172 69.8287 74.2573 69.7912 74.3546C69.862 74.176 69.7803 74.0213 69.6527 73.884C70.2287 73.1853 70.5527 72.376 70.7167 71.5413C71.1448 71.536 71.4421 70.324 71.615 69.2707C72.4161 67.852 72.6005 66.64 71.2281 66.3306Z" fill="#008000"/>
<path d="M104.151 55.148C103.901 54.9934 103.629 54.8334 103.3 54.6694C103.245 57.032 103.304 58.9333 103.736 60.592C103.548 62.0747 103.305 63.5374 102.999 64.9774C101.932 65.324 101.073 65.9227 101.9 67.6227C102.071 67.4 102.272 67.2347 102.5 67.1253C102.132 68.5653 101.695 69.976 101.211 71.364C100.216 72.64 99.5467 74.228 98.5933 76.096C98.8013 76.196 98.9893 76.2854 99.1733 76.372C99.068 76.592 98.9587 76.808 98.852 77.0267C98.1133 78.5387 97.3347 79.964 96.4907 81.3454C96.3813 81.42 96.2773 81.4973 96.16 81.5667C96.2187 81.58 96.2773 81.5813 96.3373 81.5893C95.9347 82.2413 95.5213 82.884 95.0893 83.516C95.012 83.3654 94.9187 83.2107 94.7893 83.04C93.4115 85.12 92.1765 87.4267 90.5084 89.3027C89.7907 90.1107 89.0251 90.8667 88.2484 91.612C88.2703 91.5707 88.2875 91.5267 88.3104 91.4853C84.862 94.4013 81.6344 97.044 77.6516 99.2267C77.6765 99.272 77.7084 99.3054 77.7328 99.3494C74.7156 100.996 71.5156 102.323 68.1735 103.287C68.1563 103.224 68.1479 103.159 68.1303 103.096C67.0479 103.357 64.5469 103.929 64.2109 104.108C64.2375 104.153 64.2724 104.18 64.2995 104.223C63.474 104.387 62.6407 104.527 61.8011 104.647C60.6969 104.563 59.564 104.571 59.2161 104.581C59.514 104.648 59.6969 104.752 59.814 104.883C57.5287 105.108 55.2 105.171 52.8355 105.053C52.5172 104.708 51.8927 104.511 50.4297 104.389C50.5427 104.5 50.6245 104.691 50.688 104.909C49.8697 104.832 49.0479 104.737 48.2235 104.617C47.0052 104.441 45.8052 104.205 44.6197 103.943C43.136 103.139 39.7959 102.175 38.5016 102.189C37.8364 101.952 37.1823 101.696 36.5312 101.432C36.3084 101.165 35.9631 100.907 35.4421 100.673C34.464 100.237 34.1672 100.275 33.8197 100.247C33.0593 99.884 32.3073 99.504 31.5693 99.1067C30.2464 97.9827 28.6344 95.984 27.0787 96.3947C26.2536 95.836 25.4427 95.2613 24.6531 94.6573C23.5573 93.656 22.4375 92.5467 22.1375 92.2587C21.474 91.62 20.9479 91.292 20.4864 91.1027C18.0151 88.7653 15.7792 86.196 13.8093 83.4373C14.2677 83.0693 13.9188 82.82 13.264 82.6533C12.8912 82.1107 12.5292 81.5614 12.1771 81.004C12.2027 81.0214 12.224 81.0307 12.25 81.0467C12.1547 80.904 12.0563 80.7734 11.9541 80.648C9.36933 76.4894 7.36973 71.9693 6.05626 67.2187C5.738 63.5493 5.414 59.7627 4.39533 57.7933C4.07973 53.6933 4.262 49.5 5.0224 45.2853C5.224 44.1587 5.46973 43.0574 5.73386 41.968C5.76613 41.96 5.79893 41.9614 5.82813 41.9734C6.0364 41.056 6.21253 40.192 6.43067 39.3694C9.81253 26.636 17.9473 16.8254 28.0407 10.2907C28.5448 10.0627 28.9349 9.84137 29.1505 9.58003C30.1407 8.97337 31.1547 8.40671 32.1844 7.86271C32.988 7.52138 33.7125 7.19469 34.2989 6.80536C34.9864 6.47869 35.6803 6.16932 36.3812 5.87066C36.3672 5.93866 36.3636 6 36.3276 6.07867C36.8459 5.91867 37.364 5.75869 37.8812 5.60002C37.8161 5.51202 37.7516 5.42399 37.686 5.33732C37.9016 5.25199 38.1188 5.16937 38.3349 5.08804C38.3333 5.21204 38.3355 5.33469 38.3115 5.46936C44.4932 3.65602 50.9183 4.88533 56.7792 2.70933C57.6536 2.36 56.6115 1.88536 55.0735 1.44403C55.2917 1.42936 55.5131 1.4227 55.7317 1.4107C58.1011 2.7867 65.5651 7.58134 66.3948 5.91734C69.4661 6.65334 70.4307 9.09602 74.7891 8.76669C76.2292 9.58135 77.6417 10.4294 79.0177 11.3187C78.9645 11.8547 79.8115 12.256 80.8984 12.5813C84.9792 15.3973 88.6953 18.5707 91.9093 22.1213C92.1645 22.52 92.5203 22.8974 92.8948 23.2347C93.8797 24.3854 94.82 25.5693 95.6933 26.7973C96.8027 29.924 98.3213 34.992 100.332 34.9414C100.599 35.5467 100.848 36.164 101.088 36.7814C101.009 37.8667 100.639 38.984 101.084 40.4907C101.505 39.4627 101.892 39.8067 102.28 40.208C102.348 40.436 102.399 40.6707 102.464 40.8987C100.892 41.704 102.663 44.1093 102.521 45.688C102.805 45.3933 103.089 45.0987 103.376 44.8054C103.465 45.284 103.541 45.772 103.615 46.2587C103.303 46.1227 102.96 46.036 102.567 46.0547C102.772 47.3387 102.944 48.6253 103.081 49.9187C103.443 49.688 103.751 49.604 104.011 49.6573C104.033 49.9373 104.068 50.2133 104.085 50.4973C103.773 50.5707 103.452 50.5707 103.121 50.4774C102.187 53.744 102.545 54.8107 104.183 53.7027C104.183 54.1787 104.163 54.664 104.151 55.148ZM32.5645 4.81604C32.3364 4.89337 32.1088 4.97337 31.8797 5.05204C31.7469 4.95604 31.6136 4.85467 31.4869 4.75067C31.8464 4.772 32.2063 4.7947 32.5645 4.81604ZM40.3489 4.36669C39.9839 4.50802 40.3355 5.12671 40.0964 4.92938C40.1145 4.81471 39.9656 4.75337 40.0459 4.8827C39.9792 4.82004 39.8885 4.72669 39.7473 4.56936C39.9479 4.50002 40.1473 4.43469 40.3489 4.36669ZM47.1432 0.90666C46.088 1.55733 45.3937 1.61733 45.0531 1.10933C44.9667 0.978663 44.8989 0.832027 44.8588 0.641361C45.6203 0.730694 46.3823 0.81866 47.1432 0.90666ZM56.7464 1.35471C56.8093 1.40937 56.8973 1.47202 57.0005 1.53068C56.8469 1.47335 56.6959 1.42002 56.5479 1.36936C56.6156 1.36536 56.6776 1.35737 56.7464 1.35471ZM96.7027 28.2907C96.7373 28.344 96.7747 28.3973 96.8093 28.4507C96.7373 28.4613 96.6667 28.4614 96.5933 28.4774C96.6347 28.4067 96.6653 28.3547 96.7027 28.2907ZM92.1661 16.46C86.9303 11.3907 80.5552 7.6307 73.8224 4.91604C67.7751 2.4787 60.3172 1.96399 54.9631 0.239994C56.3437 0.68266 57.7167 1.15737 59.0828 1.64937C57.6869 1.26004 56.6688 1.02532 56.6292 1.13732C56.6084 1.19999 56.6599 1.27737 56.7464 1.35471C56.6703 1.35737 56.5912 1.35468 56.5156 1.35868C55.8599 1.13201 55.2803 0.98133 55.0084 1.04266C55.0573 1.032 55.3125 1.16671 55.6921 1.38804C55.4552 1.39604 55.2193 1.40667 54.9817 1.41734C52.8459 0.814671 49.8208 0.285324 49.4765 0.270658C49.3417 0.265324 43.0511 -0.00799594 43.7391 0.650671C42.0547 0.886671 40.636 2.29999 39.1093 3.10666C38.3995 3.24799 37.6937 3.40399 36.9943 3.57066C36.9593 3.28132 36.0953 3.21735 36.5421 2.46135C35.2125 2.83335 28.3084 5.34934 28.5803 5.58667C29.4891 5.36001 30.3833 5.08401 31.264 4.75601C28.6875 5.79334 20.0317 8.61066 19.3 11.3733C19.4407 11.4773 19.5672 11.572 19.6948 11.6694C19.6088 11.7374 19.5251 11.8094 19.438 11.88C19.3803 11.752 19.3093 11.644 19.2599 11.5054C18.9828 12.0147 18.6828 12.4213 18.3697 12.776C17.974 13.12 17.5817 13.4733 17.1953 13.84C15.7495 14.9133 14.2183 15.5454 13.2339 18.1414C8.79426 23.5854 5.45733 29.86 3.34213 36.532C2.664 38.592 2.12293 40.5627 1.92973 41.8787C1.31973 44.74 0.929197 47.6454 0.767197 50.5707C0.244797 51.8347 0.765598 60.36 1.21453 61.744C2.18387 67.86 4.1344 73.688 6.93493 79.0094C7.69213 81.6707 10.3495 85.076 12.3255 87.328C13.874 89.3067 15.5541 91.1773 17.3511 92.9267C18.1563 93.9453 18.9115 95.0307 19.6615 96.3533C20.238 97.376 22.0027 97.5707 23.262 97.9307C32.3203 104.575 43.4303 108.517 55.336 108.515C85.0735 108.511 107.687 83.452 107.139 54.1827C106.883 40.4734 102.163 26.1414 92.1661 16.46Z" fill="#008000"/>
<path d="M32.6281 47.1027C33.1188 47.232 33.0443 47.3147 32.3979 47.3453C32.1401 47.3573 32.5552 47.1213 32.6281 47.1027ZM25.5604 54.4733C25.5604 54.4733 25.4115 54.4027 25.3245 54.3453C25.4417 54.3587 25.5547 54.372 25.6713 54.3814C25.6459 54.408 25.6115 54.4387 25.5604 54.4733ZM28.1713 44.7547C27.6719 44.8573 27.1197 45.0653 26.512 45.384C26.7552 45.0227 26.9459 44.728 26.8864 44.7494C27.1839 44.6334 27.6557 44.6533 28.1713 44.7547ZM27.6844 44.3467C27.5703 44.3827 27.4536 44.3387 27.3245 44.2134C27.414 44.1907 27.862 44.3107 27.6844 44.3467ZM30.0057 44.888C29.9693 44.872 29.936 44.8547 29.8989 44.8427C30.0125 44.752 30.3151 44.716 30.0057 44.888ZM31.1271 49.1C31.1407 49.1533 31.1407 49.2307 31.1328 49.3253C31.1193 49.284 31.1021 49.2427 31.0885 49.2C31.1011 49.1667 31.1156 49.1333 31.1271 49.1ZM25.4448 49.98C25.5427 49.7267 25.6651 49.464 25.8068 49.1947C25.8901 49.0653 25.9817 48.9373 26.0812 48.8107C26.0995 48.8347 26.1193 48.86 26.1364 48.884C25.7417 49.5947 25.4953 50.3347 25.3755 50.828C25.3328 50.5493 25.3604 50.2654 25.4448 49.98ZM27.4401 50.4667C27.474 50.512 27.5073 50.5573 27.5375 50.6027C27.3823 51.1067 27.262 51.5707 27.1636 51.9227C27.1417 51.4333 27.2396 50.9453 27.4401 50.4667ZM33.0073 48.1494C33.0073 48.1494 33.05 48.1387 33.0885 48.1267C33.0661 48.1333 33.0573 48.136 33.0073 48.1494ZM32.6385 50.836C33.4421 49.86 34.0593 49.004 33.6292 48.9947C33.4183 49.408 33.0745 49.7934 32.6005 50.1467C32.4027 50.1054 34.0307 48.0027 32.6917 46.952C32.6932 46.9653 32.6599 46.9787 32.5953 46.9973C32.6672 46.9907 32.6713 46.9987 32.3907 47.0373C31.4088 46.8747 32.4432 46.86 32.6651 46.9267C32.4667 46.7787 32.2063 46.6533 31.8703 46.5573C31.7989 46.6147 31.7479 46.6773 31.6891 46.7373C31.5344 46.3667 31.3401 46.032 31.1073 45.74C31.5005 45.784 31.7803 45.844 31.9609 45.9187C31.8984 45.808 31.8459 45.5893 31.8984 45.7013C31.9093 45.7267 31.9479 45.7507 31.9864 45.7787C31.5812 45.3227 30.9713 44.7653 31.0161 44.796C32.424 45.0187 27.8708 43.0747 25.4953 44.5213C25.6104 44.432 25.7188 44.3427 25.838 44.2573C25.7855 44.2227 25.6245 44.3573 25.3984 44.5747C25.2464 44.6747 25.1036 44.7893 24.974 44.9213C25.0807 44.836 25.1932 44.752 25.3031 44.6693C24.4355 45.532 22.8021 47.38 22.3339 46.628C22.2401 46.8147 21.9751 47.4573 21.7412 48.2187C21.6792 48.176 21.6036 48.1427 21.5255 48.1653C21.4407 48.1893 21.5437 48.3667 21.6844 48.412C21.5161 48.988 21.3755 49.612 21.338 50.1573C21.0593 50.7733 20.9823 51.396 21.2005 51.9973C20.9849 52.56 22.2093 53.5107 23.5088 54.244C23.5833 54.2333 23.7812 54.3667 23.7812 54.3667C24.9317 55.0227 26.1167 55.4627 26.1427 55.1733C26.1792 54.8027 26.1136 54.568 26.0005 54.4027C26.4656 54.4267 26.9317 54.42 27.388 54.3853C27.226 54.6547 27.0563 54.96 26.8776 55.336C21.0317 58.4347 28.0208 54.9227 28.6375 54.2293C28.6328 54.2507 28.6276 54.2707 28.6651 54.308C28.8828 54.1867 28.938 54.1427 28.8412 54.184C28.7484 54.1747 28.7021 54.184 28.6672 54.1973C28.7021 54.188 28.738 54.18 28.7724 54.172C29.0027 54.1133 29.2235 54.0534 29.4344 53.9814C28.8771 54.2934 28.436 54.6427 28.1281 55.036C28.4792 55.3387 31.6703 53.42 31.3115 53.2867C30.8593 53.268 30.5584 53.3653 30.4093 53.576C30.4172 53.5547 30.4407 53.5213 30.4557 53.4947C30.5631 53.424 30.664 53.352 30.7568 53.2733C31.2656 53.1827 31.6751 52.5627 31.9255 51.6827C32.0729 51.5094 32.2219 51.336 32.3672 51.1613C32.386 50.9133 32.5421 50.812 32.6385 50.836Z" fill="#008000"/>
<path d="M82.2145 53.1787C82.1104 53.072 82.0645 52.9427 82.0057 52.816C82.1959 52.988 82.4084 53.132 82.6407 53.2373C82.5235 53.348 82.3828 53.352 82.2145 53.1787ZM78.026 54.388L78.1489 54.5213C78.0573 54.5106 77.4396 54.4253 78.026 54.388ZM78.0812 46.6333C78.1703 46.624 78.2213 46.6293 78.262 46.6387C78.2297 46.664 78.1948 46.688 78.1631 46.7107C78.1255 46.696 78.0984 46.6693 78.0812 46.6333ZM79.014 45.108C79.2031 44.6573 78.8307 45.96 79.014 45.108ZM81.3052 45.116C80.6609 45.284 79.9943 45.5773 79.3557 45.94C79.6303 45.4427 79.9068 44.928 79.8541 44.9493C80.1516 44.8307 80.6979 44.9227 81.3052 45.116ZM80.6667 44.604C80.55 44.6253 80.4541 44.5707 80.3667 44.4413C80.4541 44.4267 80.8432 44.592 80.6667 44.604ZM86.1588 48.3613C86.5584 48.2053 85.7636 47.5013 86.1588 48.3613ZM87.1276 50.792C87.1417 50.788 86.9323 50.9333 86.9323 51.0213C86.8803 50.7546 86.8099 50.4853 86.7245 50.2186C86.9552 49.6066 87.0604 49.1693 86.8484 49.176C86.7907 49.3907 86.6973 49.6 86.5803 49.8027C86.5099 49.6187 86.438 49.4347 86.3563 49.2493C86.4079 48.6747 86.3511 47.9947 85.9473 47.4813C85.9183 47.524 85.7656 47.5573 85.486 47.5827C85.4473 47.5573 85.4375 47.5386 85.4276 47.5213C85.4683 47.4506 85.6036 47.3453 85.6437 47.332C85.7568 47.36 85.8401 47.3853 85.8912 47.4093C85.8265 47.336 85.7527 47.2693 85.6735 47.2053C85.6609 47.2213 85.638 47.232 85.4193 47.276C85.3521 47.2667 85.2969 47.256 85.2479 47.2467C85.2245 47.2067 85.1979 47.1693 85.1724 47.1293C85.2912 47.1173 85.4584 47.1147 85.5755 47.1293C85.4161 47.02 85.2213 46.932 84.9995 46.8627C84.8235 46.5987 84.6437 46.3387 84.4631 46.0827C84.612 46.1053 84.7265 46.1347 84.8235 46.168C84.7688 46.0973 84.7115 45.996 84.6973 45.9573C84.2287 45.5266 83.636 45.0493 83.7219 45.112C85.0469 45.292 80.5907 43.4787 78.5573 44.776C78.6927 44.664 78.8104 44.5467 78.9604 44.4413C78.9016 44.3973 78.7375 44.552 78.5193 44.7973C78.3693 44.8973 78.2312 45.0093 78.1125 45.1467C78.2213 45.04 78.3593 44.944 78.4792 44.8413C77.6989 45.7213 76.2484 47.672 75.8527 46.8747C75.6907 47.2467 75.6713 48.0427 75.7781 49.0013C75.724 49.0907 75.6803 49.172 75.6557 49.2427C75.1776 50.576 75.5052 52.0093 76.7421 53.1933C76.7765 53.224 76.8672 53.2826 76.986 53.352C77.6672 54.712 78.5989 55.5813 79.7396 55.0266C78.4505 55.9346 80.2891 54.844 79.7235 55.5373C79.8864 55.3387 80.0021 55.184 80.0943 55.052C81.1036 55.4426 82.2063 55.4946 83.2339 55.3186C83.2495 55.58 83.274 55.8653 83.3224 56.1987C83.3355 56.176 83.6328 55.604 83.7948 55.1987C83.9697 55.1533 84.1385 55.104 84.3068 55.0453C84.2177 55.252 84.1661 55.4613 84.1579 55.6773C84.4203 55.7867 85.064 55.1 85.5172 54.4813C86.3719 53.9533 86.9588 53.2653 87.0292 52.5546C87.0765 52.0493 87.0333 51.532 86.9323 51.0213C86.9375 51.048 86.964 51.0747 87.0339 51.0813C87.8484 51.164 87.3391 50.66 87.1276 50.792Z" fill="#008000"/>
<path d="M70.7792 72.076C70.7109 72.0947 70.6719 72.1053 70.6527 72.1107C71.0917 71.9933 70.4995 73.0813 70.8047 72.9627C70.8792 72.9267 71.0193 72.0107 70.7792 72.076Z" fill="#008000"/>
<path d="M68.2161 76.2773C68.4828 76.1227 68.7677 75.3 68.8745 75.26C68.5073 75.4013 68.4036 76.1667 68.2161 76.2773Z" fill="#008000"/>
<path d="M64.8745 78.6853C65.1932 79.144 65.4448 78.0053 65.2713 77.972C65.1989 77.9586 64.6292 78.3093 64.8745 78.6853Z" fill="#008000"/>
<path d="M62.0735 80.6893C62.3021 81.3907 63.1156 79.7213 63.0421 79.7653C62.9541 79.832 61.9339 80.2587 62.0735 80.6893Z" fill="#008000"/>
<path d="M55.8516 81.252C55.9088 82.6 57.4636 80.6933 57.3588 80.7187C57.1735 80.7667 55.8369 80.7827 55.8516 81.252Z" fill="#008000"/>
<path d="M43.8183 78.7213C43.8401 78.9813 44.5391 79.0787 44.4401 78.688C44.4401 78.688 43.8021 78.424 43.8183 78.7213Z" fill="#008000"/>
</svg>
